<svg xmlns="http://www.w3.org/2000/svg" xmlns:xlink="http://www.w3.org/1999/xlink" id="Ebene_1" x="0" y="0" version="1.1" viewBox="0 0 357.6 71.8" xml:space="preserve" style="enable-background:new 0 0 357.6 71.8"><path id="Perseus" fill="#041E42" d="M46.7,7.3c-4.3-4-10.1-6.3-16.1-6.2C25.1,1,19.9,2.9,15.7,6.3l-0.1-4.1H0v68.5h16.3V51.3 c3.8,2.7,8.6,4.3,13.5,4.3c8.1-0.1,15.7-3.8,20.5-10.1c3.9-4.9,5.9-10.9,5.9-17.1C56.2,20.4,52.7,12.8,46.7,7.3z M27.8,40.2 c-6.8,0-12.3-5.3-12.3-11.9S21,16.4,27.8,16.4c3.3,0.1,6.3,1.3,8.6,3.5c3.5,3.4,4.6,8.5,2.7,12.9C37.2,37.2,32.7,40.2,27.8,40.2 L27.8,40.2z M143,3.1c-2.1,0-7.5-0.4-12.3,4.3c-1,1-1.9,2.1-2.8,3.2V3.3h-15.3v26.5l0,0c0-0.1,0-0.3,0-0.5 C112.3,14.5,99.7,2.6,84.2,2.7C68.8,2.8,56.3,14.7,56,29.5c0.1,8.1,3.8,15.8,10.3,21c5.2,4,11.6,6.2,18.3,6.2 C91.9,56.8,98.9,54,104,49c2.9-2.7,5.1-5.9,6.5-9.5H93.9c-0.6,0.7-1.3,1.2-2.1,1.7c-2.1,1.3-4.5,1.9-7,1.9 c-4.3,0.1-8.4-1.8-11.1-5.1c-0.7-1-1.3-2.1-1.9-3.2h40.9v20.8H129V26.4c0.1-2.6,0.4-3.7,1.2-4.9c2.5-3.7,8.9-3.9,9.5-3.9 c1.1-0.1,2.3,0,3.4,0.2L143,3.1z M72.5,23.4c0.5-0.9,1.1-1.9,1.8-2.6c0.7-0.8,1.5-1.5,2.4-2c3.2-2.2,7.3-2.9,11.1-2.1 s7.1,3.3,8.9,6.7C96.7,23.4,72.5,23.4,72.5,23.4z M273.4,3.1v28.4c0,1,0.3,4.7-1.9,7.7c-1.7,2.1-4.3,3.4-7,3.4 c-3.7,0.1-6.9-2.3-7.5-5.8c-0.3-1.3-0.5-2.7-0.4-4V3.2h-16.3v26.2l0,0l0,0c-0.1-15-12.7-27.2-28.3-27.1s-28.2,12.3-28.2,27.3 c0,1.7,0.1,3.3,0.5,4.9c-0.9-2.7-2.7-5.1-5.1-6.8c-3.6-2.6-7-3.4-11.3-4.3c-3.2-0.9-5.3-1.5-6.5-2.2c-1.1-0.8-1.8-2.1-1.8-3.4 c-0.1-1.4,0.7-2.7,1.9-3.5s2.9-0.7,4.1,0.1c1.7,1,2,2.5,2.2,4.3h15.5c-0.1-1.7-0.4-3.4-0.9-5.1c-1.5-4.5-6.4-11.3-18.6-11.3 c-7.5,0-15.3,3.2-19,10c-1.3,2.3-1.9,4.9-1.8,7.5c-0.1,3.9,1.4,7.6,4.2,10.3c2.2,2,5,3.6,11.3,5.1c4.3,1.1,6.7,1.3,8.2,3.1 c0.5,0.7,0.9,1.7,0.9,2.5c-0.1,2.3-2.1,4.2-4.5,4.1c-0.9,0-1.7-0.3-2.5-0.7c-2.3-1.1-2.4-3.7-2.6-4.5h-16.5c0.2,2.4,0.9,4.7,2,6.9 c1.1,1.9,2.5,3.7,4.3,5.1c2.6,2.1,7.2,4.9,15.3,4.9c9.5,0,14.9-4,17.3-6.7c2.9-2.9,4.5-6.9,4.4-10.9c0-0.9-0.1-1.9-0.3-2.8 c1.5,5.5,4.7,10.5,9.3,14.2c5.2,4,11.6,6.2,18.3,6.2c7.3,0.1,14.3-2.7,19.4-7.7c2.9-2.7,5.1-5.9,6.5-9.5h-16.5 c-0.6,0.7-1.3,1.2-2.1,1.7c-2.1,1.3-4.5,1.9-7,1.9c-4.3,0.1-8.4-1.8-11.1-5.1c-0.7-1-1.3-2.1-1.9-3.2h41c0,2.7,0.4,5.4,1.1,8.1 c1.7,6.1,6.6,11,12.9,12.9c1.9,0.5,3.9,0.8,5.9,0.8c7.5,0,10.9-3.3,13.1-5.6l0.1,4.7h16.1V3.2L273.4,3.1L273.4,3.1z M200.1,23.4 c0.5-0.9,1.1-1.9,1.8-2.6c0.7-0.8,1.5-1.5,2.4-2c3.2-2.2,7.3-2.9,11.1-2.1c3.8,0.9,7.1,3.3,8.9,6.7 C224.3,23.4,200.1,23.4,200.1,23.4z M327.4,27.7c-3.6-2.6-7-3.4-11.3-4.3c-3.2-0.9-5.3-1.5-6.5-2.2c-1.1-0.8-1.8-2.1-1.8-3.4 c-0.1-1.4,0.7-2.7,1.9-3.5c1.3-0.7,2.9-0.7,4.1,0.1c1.7,1,2,2.5,2.2,4.3h15.6c-0.1-1.7-0.4-3.4-0.9-5.1c-1.5-4.5-6.4-11.3-18.6-11.3 c-7.5,0-15.3,3.2-19,10c-1.3,2.3-1.9,4.9-1.8,7.5c-0.1,3.9,1.4,7.6,4.2,10.3c2.2,2,5,3.6,11.3,5.1c4.3,1.1,6.7,1.3,8.2,3.1 c0.5,0.7,0.9,1.6,0.9,2.5c-0.1,2.3-2.1,4.2-4.5,4.1c-0.9,0-1.7-0.3-2.5-0.7c-2.3-1.1-2.4-3.7-2.6-4.5h-16.5c0.2,2.4,0.9,4.7,2,6.9 c1.1,1.9,2.5,3.7,4.3,5.1c2.6,2.1,7.2,4.9,15.3,4.9c9.5,0,14.9-4,17.3-6.7c2.9-2.9,4.5-6.9,4.4-10.9 C333.2,34.4,331.4,30.5,327.4,27.7z" class="st0"/><circle id="Perseus_Circle" cx="346.9" cy="45.8" r="10.7" fill="#FD6E41" class="st1"/></svg>